<svg width="225" height="61" viewBox="0 0 225 61" fill="none" xmlns="http://www.w3.org/2000/svg">
<path d="M224.891 19.1044H221.368L215.748 26.6456L210.17 19.1044H206.605L213.987 29.1594L206.731 39.34H210.296L215.748 31.4636L221.201 39.34H224.724L217.468 29.1594L224.891 19.1044Z" fill="black"/>
<path d="M99.989 21.66H106.113V39.3399H109.048V21.66H115.13V18.8949H99.989V21.66Z" fill="black"/>
<path d="M152.584 18.6854C146.754 18.6854 142.099 23.3777 142.099 29.2012C142.099 35.0246 146.754 39.6751 152.584 39.6751C158.414 39.6751 163.111 35.0246 163.111 29.2012C163.153 23.3777 158.456 18.6854 152.584 18.6854ZM152.584 36.7005C148.432 36.7005 145.076 33.3907 145.076 29.2012C145.076 25.0116 148.39 21.7018 152.584 21.7018C156.736 21.7018 160.092 25.0535 160.092 29.2012C160.092 33.3488 156.778 36.7005 152.584 36.7005Z" fill="black"/>
<path d="M181.23 33.3489L171.374 19.1044H169.109V39.34H172.045V25.2212L181.817 39.34H184.124V19.1044H181.23V33.3489Z" fill="black"/>
<path d="M197.252 18.9368H194.316V39.34H197.252V18.9368Z" fill="black"/>
<path d="M136.394 25.5563C136.394 22.3303 134.213 18.853 129.81 18.853H122.428V39.3399H125.322V31.8406H126.203H127.419H127.545L133.752 39.3399H137.527L131.152 31.7568C134.633 31.1284 136.394 28.4052 136.394 25.5563ZM125.322 29.0755V21.7857H129.81C132.284 21.7857 133.5 23.7966 133.5 25.5563C133.5 27.3159 132.284 29.0755 129.81 29.0755H125.322Z" fill="black"/>
<path d="M67.1907 4.81799H25.6683C23.8229 4.81799 22.313 6.32623 22.313 8.16964V52.8303C22.313 54.6737 23.8229 56.182 25.6683 56.182H67.1907C69.0361 56.182 70.546 54.6737 70.546 52.8303V8.16964C70.546 6.32623 69.0361 4.81799 67.1907 4.81799ZM62.1576 22.6655H39.6349V38.3345H56.4116L47.9394 33.6422H54.734L43.2 27.8606H53.1821H62.1157V38.3345V47.2582H53.1821H39.6349H30.6594V38.3345V22.6655V13.7418H39.593H62.1157V22.6655H62.1576Z" fill="#1B1B1B"/>
<path opacity="0.38" d="M22.313 4.81799H70.546V20.5288L22.313 43.9485V4.81799Z" fill="url(#paint0_linear)"/>
<path d="M30.6595 0H28.1011V4.818H30.6595V0Z" fill="#B0936A"/>
<path d="M36.3225 0H33.764V4.818H36.3225V0Z" fill="#B0936A"/>
<path d="M42.0263 0H39.4679V4.818H42.0263V0Z" fill="#B0936A"/>
<path d="M47.6878 0H45.1293V4.818H47.6878V0Z" fill="#B0936A"/>
<path d="M53.3498 0H50.7914V4.818H53.3498V0Z" fill="#B0936A"/>
<path d="M59.0539 0H56.4954V4.818H59.0539V0Z" fill="#B0936A"/>
<path d="M64.716 0H62.1576V4.818H64.716V0Z" fill="#B0936A"/>
<path d="M30.6595 56.182H28.1011V61H30.6595V56.182Z" fill="#B0936A"/>
<path d="M36.3225 56.182H33.764V61H36.3225V56.182Z" fill="#B0936A"/>
<path d="M42.0263 56.182H39.4679V61H42.0263V56.182Z" fill="#B0936A"/>
<path d="M47.6878 56.182H45.1293V61H47.6878V56.182Z" fill="#B0936A"/>
<path d="M53.3498 56.182H50.7914V61H53.3498V56.182Z" fill="#B0936A"/>
<path d="M59.0539 56.182H56.4954V61H59.0539V56.182Z" fill="#B0936A"/>
<path d="M64.716 56.182H62.1576V61H64.716V56.182Z" fill="#B0936A"/>
<path d="M75.3692 47.4677H70.5459V50.0233H75.3692V47.4677Z" fill="#B0936A"/>
<path d="M75.3692 41.3927H70.5459V43.9484H75.3692V41.3927Z" fill="#B0936A"/>
<path d="M83.9253 35.318H70.5459V37.8736H83.9253V35.318Z" fill="#B0936A"/>
<path d="M92.8588 29.2441H70.5459V31.7998H92.8588V29.2441Z" fill="#B0936A"/>
<path d="M83.9253 23.1682H70.5459V25.7238H83.9253V23.1682Z" fill="#B0936A"/>
<path d="M22.3121 47.4677H17.4888V50.0233H22.3121V47.4677Z" fill="#B0936A"/>
<path d="M22.3121 41.3927H17.4888V43.9484H22.3121V41.3927Z" fill="#B0936A"/>
<path d="M22.3121 17.0934H17.4888V19.649H22.3121V17.0934Z" fill="#B0936A"/>
<path d="M22.3121 11.0179H17.4888V13.5735H22.3121V11.0179Z" fill="#B0936A"/>
<path d="M22.3123 35.318H8.93292V37.8736H22.3123V35.318Z" fill="#B0936A"/>
<path d="M22.3129 29.2441H0V31.7998H22.3129V29.2441Z" fill="#B0936A"/>
<path d="M22.3123 23.1682H8.93292V25.7238H22.3123V23.1682Z" fill="#B0936A"/>
<path d="M75.3692 17.0934H70.5459V19.649H75.3692V17.0934Z" fill="#B0936A"/>
<path d="M75.3692 11.0179H70.5459V13.5735H75.3692V11.0179Z" fill="#B0936A"/>
<defs>
<linearGradient id="paint0_linear" x1="50.2638" y1="33.7402" x2="39.3322" y2="7.09477" gradientUnits="userSpaceOnUse">
<stop stop-color="white"/>
<stop offset="0.5693" stop-color="white" stop-opacity="0"/>
</linearGradient>
</defs>
</svg>
