<svg width="27" height="27" viewBox="0 0 27 27" fill="none" xmlns="http://www.w3.org/2000/svg">
<path d="M22.4735 11.3062C22.4756 8.74853 21.6148 6.26583 20.0319 4.2642C18.449 2.26257 16.2377 0.860501 13.7597 0.287328C11.2817 -0.285845 8.68363 0.00380892 6.39054 1.10891C4.09744 2.21401 2.24503 4.06914 1.1363 6.37086C0.0275766 8.67258 -0.271837 11.2846 0.287039 13.7798C0.845915 16.2749 2.23 18.5054 4.21289 20.1064C6.19579 21.7075 8.66012 22.5843 11.2028 22.5934C13.7455 22.6026 16.216 21.7435 18.2102 20.1568L25.0133 27L26.8447 25.1578L20.0416 18.3145C21.6178 16.3228 22.4752 13.8519 22.4735 11.3062ZM11.2429 19.996C9.53432 19.996 7.86408 19.4864 6.44343 18.5315C5.02277 17.5767 3.91551 16.2195 3.26165 14.6317C2.6078 13.0438 2.43672 11.2966 2.77005 9.61091C3.10338 7.92525 3.92616 6.37688 5.13432 5.16159C6.34249 3.9463 7.88179 3.11867 9.55757 2.78337C11.2333 2.44808 12.9703 2.62016 14.5489 3.27787C16.1274 3.93559 17.4766 5.04938 18.4259 6.47841C19.3751 7.90744 19.8818 9.58753 19.8818 11.3062C19.8818 13.6109 18.9716 15.8212 17.3515 17.4508C15.7314 19.0805 13.5341 19.996 11.2429 19.996Z" fill="black"/>
</svg>
