<svg width="31" height="22" viewBox="0 0 31 22" fill="none" xmlns="http://www.w3.org/2000/svg">
<path d="M27.3333 0H2.73333C1.23 0 0 1.2375 0 2.75V19.25C0 20.7625 1.23 22 2.73333 22H27.3333C28.8367 22 30.0667 20.7625 30.0667 19.25V2.75C30.0667 1.2375 28.8367 0 27.3333 0ZM2.73333 1.375H27.3333C27.47 1.375 27.675 1.375 27.8117 1.44375L15.99 13.3375C15.7167 13.6125 15.375 13.75 15.0333 13.75C14.6917 13.75 14.35 13.6125 14.0767 13.3375L2.255 1.44375C2.39167 1.375 2.59667 1.375 2.73333 1.375ZM1.36667 19.25V2.75C1.36667 2.68125 1.36667 2.6125 1.36667 2.54375L9.84 11L1.36667 19.4563C1.36667 19.3875 1.36667 19.3188 1.36667 19.25ZM27.3333 20.625H2.73333C2.59667 20.625 2.39167 20.625 2.255 20.5562L10.7967 11.9625L13.12 14.3C13.6667 14.85 14.35 15.125 15.0333 15.125C15.7167 15.125 16.4 14.85 16.9467 14.3688L19.27 12.0312L27.8117 20.625C27.675 20.625 27.47 20.625 27.3333 20.625ZM28.7 19.25C28.7 19.3188 28.7 19.3875 28.7 19.4563L20.2267 11L28.7 2.54375C28.7 2.6125 28.7 2.68125 28.7 2.75V19.25Z" fill="#B0936B"/>
</svg>
