<svg width="26" height="26" viewBox="0 0 26 26" fill="none" xmlns="http://www.w3.org/2000/svg">
<path d="M14.1818 1.18182C20.0318 1.18182 24.8182 5.96818 24.8182 11.8182C24.8182 12.1727 25.0545 12.4091 25.4091 12.4091C25.7636 12.4091 26 12.1727 26 11.8182C26 5.31818 20.6818 0 14.1818 0C13.8273 0 13.5909 0.236364 13.5909 0.590909C13.5909 0.945455 13.8864 1.18182 14.1818 1.18182ZM14.1818 7.09091C16.7818 7.09091 18.9091 9.21818 18.9091 11.8182C18.9091 12.1727 19.1455 12.4091 19.5 12.4091C19.8545 12.4091 20.0909 12.1727 20.0909 11.8182C20.0909 8.56818 17.4318 5.90909 14.1818 5.90909C13.8273 5.90909 13.5909 6.14545 13.5909 6.5C13.5909 6.85455 13.8864 7.09091 14.1818 7.09091ZM14.1818 13C14.8318 13 15.3636 12.4682 15.3636 11.8182C15.3636 11.1682 14.8318 10.6364 14.1818 10.6364C13.5318 10.6364 13 11.1682 13 11.8182C13 12.4682 13.5318 13 14.1818 13ZM26 20.6818C26 20.2091 25.8227 19.7364 25.4682 19.4409C25.35 19.3227 25.2909 19.2636 25.1727 19.2045L20.15 15.3045C19.8545 14.95 19.3818 14.7727 18.9091 14.7727C18.4955 14.7727 18.1409 14.8909 17.8455 15.1273L16.4273 16.5455C16.1909 16.7818 15.8955 16.9591 15.5409 16.9591C15.1273 16.9591 14.7727 16.7818 14.5955 16.4273C14.5955 16.4273 14.5955 16.4273 14.5955 16.4864C12.6455 15.0682 10.9318 13.4136 9.57273 11.4636C9.57273 11.4636 9.57273 11.4636 9.63182 11.4636C9.33636 11.2273 9.1 10.8727 9.1 10.4591C9.1 10.1045 9.27727 9.75 9.51364 9.57273L10.9318 8.21364C11.1682 7.91818 11.2864 7.56364 11.2864 7.15C11.2864 6.67727 11.1091 6.20455 10.7545 5.90909L6.85455 0.886364C6.79545 0.768182 6.67727 0.65 6.61818 0.590909C6.26364 0.177273 5.79091 0 5.31818 0C2.95455 0 0 2.77727 0 6.20455C0 7.15 0.236364 8.03636 0.590909 8.86364C4.13636 15.9545 10.0455 21.8636 17.1364 25.4091C17.9636 25.7636 18.85 26 19.7955 26C23.2227 26 26 23.0455 26 20.6818ZM19.7955 24.8182C19.0273 24.8182 18.3182 24.6409 17.6682 24.3455C17.6091 24.2864 17.55 24.2864 17.4909 24.2864C10.7545 20.8591 5.2 15.2455 1.71364 8.56818C1.71364 8.50909 1.65455 8.45 1.65455 8.39091C1.35909 7.68182 1.18182 6.97273 1.18182 6.20455C1.18182 3.36818 3.66364 1.18182 5.31818 1.18182C5.55455 1.18182 5.67273 1.3 5.73182 1.35909C5.73182 1.35909 5.79091 1.41818 5.79091 1.47727C5.79091 1.53636 5.85 1.53636 5.85 1.59545L9.75 6.61818C9.80909 6.67727 9.80909 6.67727 9.86818 6.73636C9.92727 6.79545 10.0455 6.91364 10.0455 7.15C10.0455 7.26818 10.0455 7.32727 9.98636 7.44546L8.68636 8.74545C8.21364 9.21818 7.91818 9.80909 7.91818 10.4591C7.91818 11.05 8.15455 11.6409 8.56818 12.1136L8.62727 12.1727C10.1045 14.1818 11.8773 15.9545 13.9455 17.4318C13.9455 17.4318 14.0045 17.4318 14.0045 17.4909C14.4182 17.9045 15.0091 18.1409 15.6591 18.1409C16.25 18.1409 16.9 17.9045 17.3136 17.4318L17.3727 17.3727L18.6727 16.0136C18.6727 15.9545 18.7909 15.9545 18.9091 15.9545C19.1455 15.9545 19.2636 16.0727 19.3227 16.1318C19.3818 16.1909 19.3818 16.1909 19.4409 16.25L24.4636 20.15C24.5227 20.15 24.5227 20.2091 24.5818 20.2091C24.6409 20.2682 24.7 20.2682 24.7 20.2682C24.7591 20.3273 24.8773 20.4455 24.8773 20.6818C24.8773 20.7409 24.8773 20.7409 24.8773 20.8C24.7 22.3955 22.5727 24.8182 19.7955 24.8182Z" fill="#BB9A6E"/>
</svg>
